<svg xmlns="http://www.w3.org/2000/svg" width="16" height="16" viewBox="0 0 16 16" fill="none">
  <path d="M8.95254 8.00007L13.7429 2.45446C13.8232 2.3623 13.7557 2.22229 13.6316 2.22229H12.1753C12.0895 2.22229 12.0074 2.25951 11.9509 2.32331L7.99995 6.89768L4.04904 2.32331C3.99429 2.25951 3.91217 2.22229 3.82458 2.22229H2.36831C2.24421 2.22229 2.17669 2.3623 2.25699 2.45446L7.04735 8.00007L2.25699 13.5457C2.239 13.5662 2.22746 13.5913 2.22374 13.6181C2.22002 13.6448 2.22427 13.672 2.23599 13.6964C2.24771 13.7209 2.26641 13.7415 2.28986 13.756C2.31332 13.7704 2.34054 13.778 2.36831 13.7778H3.82458C3.91035 13.7778 3.99247 13.7406 4.04904 13.6768L7.99995 9.10245L11.9509 13.6768C12.0056 13.7406 12.0877 13.7778 12.1753 13.7778H13.6316C13.7557 13.7778 13.8232 13.6378 13.7429 13.5457L8.95254 8.00007Z" fill="#B7B9C7"/>
</svg>